<svg height="64" viewBox="0 0 64 64" width="64" xmlns="http://www.w3.org/2000/svg"><g fill="#fff" stroke-width="1.369" transform="translate(-.2)"><path d="m32.2 0c-17.646 0-32 14.353-32 32s14.354 32 32 32 32-14.354 32-32-14.354-32-32-32zm0 4.795c15.057 0 27.218 12.148 27.218 27.204s-12.161 27.205-27.218 27.205c-15.056 0-27.204-12.148-27.204-27.204s12.148-27.205 27.204-27.205z"/><path d="m42.90625 18.892578c-1.306-.048-3.2835.977094-5.0625 2.746094l-3.835938 3.814453-11.496093-3.859375-2.242188 2.314453 8.667969 6.585938-1.939453 1.929687a12.659 12.659 0 0 0 -1.703125 2.097656l-5.222656-.390625-1.273438 1.292969 5.19336 3.845703 3.796874 5.183594 1.28125-1.283203-.386718-5.273438c.658-.431 1.329562-.967328 1.976562-1.611328l2.041016-2.027344 6.652344 8.734376 2.314453-2.242188-3.878907-11.552734 3.716797-3.69336c2.372-2.36 3.463219-5.121406 2.449219-6.191406-.253-.268-.612828-.403922-1.048828-.419922z"/></g></svg>