<svg clip-rule="evenodd" fill-rule="evenodd" height="560" image-rendering="optimizeQuality" shape-rendering="geometricPrecision" text-rendering="geometricPrecision" viewBox="0 0 560 560" width="560" xmlns="http://www.w3.org/2000/svg"><g transform="translate(-70 -70)"><path d="m350 71c154 0 279 125 279 279s-125 279-279 279-279-125-279-279 125-279 279-279z" fill="#fefefe"/><path d="m475 236 118 151c3 116-149 252-292 198l-76-99 114-156s138-95 136-94z" fill="#332c2b" fill-opacity=".14902"/><path d="m231 211h208l38 24v246c0 5-3 8-8 8h-238c-5 0-8-3-8-8v-262c0-5 3-8 8-8z" fill="#2bbcff"/><path d="m231 211h208l38 24v2l-37-23h-209c-4 0-7 3-7 7v263c-1-1-1-2-1-3v-262c0-5 3-8 8-8z" fill="#53c6fc"/><path d="m305 212h113v98h-113z" fill="#bdeaff"/><path d="m255 363h189c3 0 5 2 5 4v116h-199v-116c0-2 2-4 5-4z" fill="#bdeaff"/><path d="m250 470h199v13h-199z" fill="#006498"/><path d="m380 226h10c3 0 6 2 6 5v40c0 3-3 6-6 6h-10c-3 0-6-3-6-6v-40c0-3 3-5 6-5z" fill="#006498"/><path d="m254 226c10 0 17 7 17 17 0 9-7 16-17 16-9 0-17-7-17-16 0-10 8-17 17-17z" fill="#fefefe"/><g fill="#006498"><path d="m267 448h165c2 0 3 1 3 3 0 1-1 3-3 3h-165c-2 0-3-2-3-3 0-2 1-3 3-3z"/><path d="m267 415h165c2 0 3 1 3 3 0 1-1 2-3 2h-165c-2 0-3-1-3-2 0-2 1-3 3-3z"/><path d="m267 381h165c2 0 3 2 3 3 0 2-1 3-3 3h-165c-2 0-3-1-3-3 0-1 1-3 3-3z"/></g><path d="m236 472c3 0 5 2 5 5 0 2-2 4-5 4s-5-2-5-4c0-3 2-5 5-5z" fill="#fefefe"/><path d="m463 472c3 0 5 2 5 5 0 2-2 4-5 4s-5-2-5-4c0-3 2-5 5-5z" fill="#fefefe"/><path d="m305 212h-21v98h21z" fill="#006498"/><path d="m477 479v2c0 5-3 8-8 8h-238c-5 0-8-3-8-8v-2c0 4 3 8 8 8h238c5 0 8-4 8-8z" fill="#0ea5eb"/><path d="m350 70c155 0 280 125 280 280s-125 280-280 280-280-125-280-280 125-280 280-280zm0 46c129 0 234 105 234 234s-105 234-234 234-234-105-234-234 105-234 234-234z" fill="#2979ff"/></g></svg>