<svg enable-background="new 0 0 104.8 95.3" viewBox="0 0 104.8 95.3" xmlns="http://www.w3.org/2000/svg"><circle cx="54.2" cy="47.7" fill="none" r="43.7" stroke="#1691d0" stroke-miterlimit="10" stroke-width="8"/><g fill="#1691d0"><path d="m89.3 39.5c6.1 2.1 12.7-1.1 14.8-7.2s-1.1-12.7-7.2-14.8-12.7 1.1-14.8 7.2 1.2 12.8 7.2 14.8z"/><path d="m77.8 91.5c6.1 2.1 12.7-1.1 14.8-7.2s-1.1-12.7-7.2-14.8-12.7 1.1-14.8 7.2 1.2 12.8 7.2 14.8z"/><path d="m58.8 64.5c6.1 2.1 12.7-1.1 14.8-7.2s-1.1-12.7-7.2-14.8-12.7 1.1-14.8 7.2 1.2 12.8 7.2 14.8z"/><path d="m7.8 69c6.1 2.1 12.7-1.1 14.8-7.2s-1.1-12.7-7.2-14.8c-6-2-12.7 1.2-14.8 7.3-2.1 6 1.2 12.7 7.2 14.7z"/></g><path d="m93.1 28.6-30 24.5" fill="none" stroke="#1691d0" stroke-miterlimit="10" stroke-width="7"/><path d="m73.1 80.2c-.4 4.9 3.2 9.3 8.2 9.8 5 .4 9.3-3.2 9.8-8.2.4-4.9-3.2-9.3-8.2-9.8-5-.4-9.3 3.2-9.8 8.2z" fill="#1691d0"/><path d="m82.1 81-18.9-27.7" fill="none" stroke="#1691d0" stroke-miterlimit="10" stroke-width="7"/><path d="m55.5 58.5c2.7 4.2 8.3 5.4 12.4 2.7 4.2-2.7 5.4-8.3 2.7-12.4-2.7-4.2-8.3-5.4-12.4-2.7-4.2 2.7-5.4 8.2-2.7 12.4z" fill="#1691d0"/><path d="m17 50.2c-4.6-2.7-10.4-1.2-13.1 3.3s-1.2 10.3 3.3 13 10.4 1.2 13.1-3.3 1.2-10.3-3.3-13z" fill="#1691d0"/><path d="m12.1 58.3 51.6-5.2" fill="none" stroke="#1691d0" stroke-miterlimit="10" stroke-width="7"/></svg>