<svg height="512" viewBox="0 0 512 512" width="512" xmlns="http://www.w3.org/2000/svg"><ellipse cx="255.99959" cy="256" fill="#f4f4f4" rx="224.99959" ry="224.99948"/><path d="m266.38666 148.93312c-122.49984 0-143.18155 20.60485-143.18155 46.02264 0 22.44678 16.12937 41.12072 104.34995 45.18401l8.14984 57.08853h61.36352l8.14984-57.08853c88.22058-4.06329 104.34995-22.73723 104.34995-45.18401 0-25.41779-20.68171-46.02264-143.18155-46.02264z" fill-opacity=".2"/><path d="m255.99959 61.682366-102.27254 102.272544h61.36353v184.09057h-61.36353l102.27254 102.27253 102.27254-102.27253h-61.36352v-184.09057h61.36352z" fill="#424242"/><path d="m215.09058 215.09117 10.22725 71.59078h61.36353l10.22725-71.59078z" fill="#b3b3b3"/><path d="m256.00003 61.681476-102.27375 102.273754h9.82516l92.44859-92.448604 92.44669 92.448604h9.82515zm-102.27375 286.363064 9.82516 9.82515h51.53986v-9.82515zm143.18249 0v9.82515h51.53795l9.82515-9.82515z" opacity=".3"/><path d="m399.18115 184.40941c0 25.4178-20.5203 46.02265-143.18156 46.02265s-143.18155-20.60485-143.18155-46.02265c0-25.41779 20.68171-46.02264 143.18155-46.02264s143.18156 20.60485 143.18156 46.02264z" fill="#d41a1a"/><path d="m223.87414 276.5764 1.44369 10.10555h61.36353l1.46696-10.26918z" opacity=".2"/><path d="m256.00003 31.000886a224.99958 224.99948 0 0 0 -224.999956 224.999954 224.99958 224.99948 0 0 0 .203411 5.75118 224.99958 224.99948 0 0 1 224.796545-220.925974 224.99958 224.99948 0 0 1 224.79656 219.246864 224.99958 224.99948 0 0 0 .20341-4.07207 224.99958 224.99948 0 0 0 -224.99997-224.999954z" fill="#fff" opacity=".3"/><path d="m480.79659 250.24775a224.99958 224.99948 0 0 1 -224.79656 220.92597 224.99958 224.99948 0 0 1 -224.796545-219.24686 224.99958 224.99948 0 0 0 -.203411 4.07398 224.99958 224.99948 0 0 0 224.999956 224.99804 224.99958 224.99948 0 0 0 224.99997-224.99804 224.99958 224.99948 0 0 0 -.20341-5.75309z" opacity=".3"/><path d="m256.00003 138.38679c-122.49983 0-143.18249 20.60502-143.18249 46.02281 0 1.66275.0951 3.30311.29361 4.92025 2.8439-23.11078 28.37717-41.1179 142.88888-41.1179 114.51176 0 140.045 18.00711 142.88889 41.1179.19848-1.61713.29169-3.2575.29169-4.92025 0-25.41779-20.68074-46.02281-143.18058-46.02281z" fill="#fff" opacity=".3"/><path d="m112.93077 181.46397c-.0676.97506-.11323 1.95501-.11323 2.94563 0 25.41779 20.52123 46.0228 143.18249 46.0228 122.66127 0 143.18058-20.60501 143.18058-46.0228 0-.98734-.0441-1.96415-.11131-2.93603-1.66414 24.03725-25.21046 43.06374-143.06927 43.06374-117.87442 0-141.41072-19.03157-143.06926-43.07334z" opacity=".3"/></svg>