<svg enable-background="new 0 0 501.333 501.333" viewBox="0 0 501.333 501.333" xmlns="http://www.w3.org/2000/svg"><path d="m250.667 0c-138.667 0-250.667 112-250.667 250.667s112 250.667 250.667 250.667 250.667-112 250.667-250.667-112.001-250.667-250.667-250.667zm0 285.867c-19.2 0-35.2-16-35.2-35.2s16-35.2 35.2-35.2 35.2 16 35.2 35.2-16 35.2-35.2 35.2z" fill="#637888"/><path d="m250.667 146.133c-57.6 0-104.533 46.933-104.533 104.533s46.933 104.534 104.533 104.534 104.533-46.933 104.533-104.533-46.933-104.534-104.533-104.534zm0 139.734c-19.2 0-35.2-16-35.2-35.2s16-35.2 35.2-35.2 35.2 16 35.2 35.2-16 35.2-35.2 35.2z" fill="#53c2ef"/></svg>